<svg width="184" height="156" viewBox="0 0 184 156" fill="none" xmlns="http://www.w3.org/2000/svg">
<path d="M37.3098 13.8012C40.4758 8.05743 46.5152 4.49023 53.0737 4.49023H116.63C122.941 4.49023 128.79 7.79478 132.047 13.1996L162.694 64.0561C166.138 69.7711 166.138 76.9223 162.694 82.6373L132.047 133.494C128.79 138.899 122.941 142.203 116.63 142.203H53.0737C46.5152 142.203 40.4758 138.636 37.3098 132.892L9.2777 82.0358C6.29622 76.6267 6.29621 70.0667 9.27769 64.6577L37.3098 13.8012Z" fill="url(#paint0_linear_766_1107)"/>
<path d="M74.5106 59.2578H59.0449V118.065H74.5106V59.2578Z" fill="white"/>
<path d="M105.329 68.5508C104.509 69.6496 104.061 70.9809 104.061 72.3728C104.061 74.0912 104.725 75.6856 105.932 76.8916C107.138 78.0991 108.747 78.764 110.448 78.764C112.15 78.764 113.758 78.0991 114.964 76.9081C117.238 74.6321 117.439 71.0579 115.551 68.5508H105.329Z" fill="white"/>
<path d="M102.342 92.6777V118.073H117.807V92.9556C115.473 93.7913 112.984 94.2252 110.446 94.2252C107.632 94.2252 104.879 93.6842 102.342 92.6777Z" fill="white"/>
<path d="M88.6247 72.3747C88.6247 66.5412 90.8812 61.0628 95.0103 56.9309C95.3818 56.559 95.7535 56.2023 96.1551 55.8776V37.6016H80.6895V118.074H96.1551V88.887C95.7535 88.562 95.3818 88.2068 95.0103 87.8351C90.881 83.7034 88.6247 78.2249 88.6247 72.3747Z" fill="white"/>
<path d="M52.8643 87.1074H37.3984V118.059H52.8643V87.1074Z" fill="white"/>
<path d="M133.234 89.8375L124.889 81.7039C126.669 78.9518 127.632 75.7432 127.632 72.3808C127.632 67.7804 125.845 63.4611 122.603 60.2163C119.36 56.9716 115.043 55.1836 110.446 55.1836C105.848 55.1836 101.53 56.9714 98.2891 60.2163C95.045 63.4609 93.2598 67.7802 93.2598 72.3808C93.2598 76.9811 95.045 81.3018 98.2878 84.5466C101.53 87.7912 105.848 89.5791 110.446 89.5791C113.807 89.5791 117.014 88.6148 119.765 86.8316L127.89 95.18C129.405 97.007 131.64 97.1159 133.368 95.3871C135.098 93.6597 135.06 91.3489 133.234 89.8375ZM110.446 81.6102C107.983 81.6102 105.666 80.649 103.923 78.9064C102.181 77.1639 101.223 74.8455 101.223 72.3808C101.223 69.9158 102.182 67.5989 103.923 65.8565C105.666 64.1141 107.981 63.1529 110.446 63.1529C112.908 63.1529 115.225 64.1141 116.966 65.8565C120.562 69.4548 120.562 75.3096 116.966 78.9079C115.225 80.6505 112.909 81.6102 110.446 81.6102Z" fill="white"/>
<defs>
<linearGradient id="paint0_linear_766_1107" x1="86.3907" y1="4.49023" x2="86.3907" y2="142.203" gradientUnits="userSpaceOnUse">
<stop stop-color="#CFA8CF"/>
<stop offset="1" stop-color="#787DC9"/>
</linearGradient>
</defs>
</svg>
