<svg width="184" height="156" viewBox="0 0 184 156" fill="none" xmlns="http://www.w3.org/2000/svg">
<path d="M37.3098 13.8012C40.4758 8.05743 46.5152 4.49023 53.0737 4.49023H116.63C122.941 4.49023 128.79 7.79478 132.047 13.1996L162.694 64.0561C166.138 69.7711 166.138 76.9223 162.694 82.6373L132.047 133.494C128.79 138.899 122.941 142.203 116.63 142.203H53.0737C46.5152 142.203 40.4758 138.636 37.3098 132.892L9.2777 82.0358C6.29622 76.6267 6.29621 70.0667 9.27769 64.6577L37.3098 13.8012Z" fill="url(#paint0_linear_766_1120)"/>
<path d="M68.0894 94.0078C49.7231 85.3438 57.6862 71.9586 71.6833 60.9956L64.5516 53.687C62.6866 51.7773 59.9761 50.7488 57.1837 50.8921C54.393 51.0352 51.8229 52.3354 50.2062 54.4252L27.6848 83.4798C21.1983 93.3889 40.6582 113.209 77.4126 113.209C80.5137 113.209 83.6728 113.096 86.846 112.896C86.7659 108.109 83.2762 101.173 68.0894 94.0078Z" fill="white"/>
<path d="M144.439 83.48L109.596 40.895C107.865 38.7758 105.149 37.5288 102.264 37.5215C99.3771 37.5142 96.6567 38.75 94.9139 40.86L75.2517 64.6501C70.117 70.2252 65.253 76.1713 72.9558 79.8881C80.1736 83.3696 106.968 87.5051 116.65 108.19C137.41 102.758 151.97 93.5212 144.439 83.48Z" fill="white"/>
<defs>
<linearGradient id="paint0_linear_766_1120" x1="86.3907" y1="4.49023" x2="86.3907" y2="142.203" gradientUnits="userSpaceOnUse">
<stop stop-color="#88D7A6"/>
<stop offset="1" stop-color="#009347"/>
</linearGradient>
</defs>
</svg>
