<svg width="184" height="156" viewBox="0 0 184 156" fill="none" xmlns="http://www.w3.org/2000/svg">
<path d="M37.5132 9.367C40.6697 3.59192 46.7264 0 53.3078 0H127.177C133.512 0 139.38 3.32937 142.629 8.76677L178.483 68.7668C181.881 74.4533 181.881 81.5467 178.483 87.2332L142.629 147.233C139.38 152.671 133.512 156 127.177 156H53.3078C46.7264 156 40.6697 152.408 37.5132 146.633L4.71858 86.633C1.77814 81.2532 1.77814 74.7468 4.71859 69.367L37.5132 9.367Z" fill="white"/>
<path d="M48.4856 13.8461C51.6515 8.10235 57.691 4.53516 64.2495 4.53516H127.806C134.117 4.53516 139.966 7.8397 143.223 13.2446L173.87 64.1011C177.314 69.816 177.314 76.9673 173.87 82.6822L143.223 133.539C139.966 138.944 134.117 142.248 127.806 142.248H64.2495C57.691 142.248 51.6515 138.681 48.4856 132.937L20.4535 82.0807C17.472 76.6716 17.472 70.1117 20.4535 64.7026L48.4856 13.8461Z" fill="url(#paint0_linear_766_1086)"/>
<g clip-path="url(#clip0_766_1086)">
<path d="M62.0388 89.3154H132.347C135.03 89.3154 137.207 87.1198 137.207 84.4133V42.6806C137.207 39.9769 135.03 37.7812 132.347 37.7812H62.0388C59.3554 37.7812 57.1816 39.9769 57.1816 42.6806V84.4133C57.1816 87.1198 59.3554 89.3154 62.0388 89.3154ZM64.6087 44.3652H129.777V81.5782H64.6087V44.3652Z" fill="white"/>
<path d="M142.847 102.915L134.18 95.1545C133.623 94.6577 132.822 94.375 131.976 94.375H62.409C61.5626 94.375 60.7616 94.6577 60.204 95.1545L51.5373 102.915C51.0731 103.329 50.8184 103.863 50.8184 104.414V107.117C50.8184 107.748 51.4721 108.257 52.279 108.257H142.106C142.915 108.257 143.567 107.748 143.567 107.117V104.414C143.566 103.863 143.312 103.329 142.847 102.915ZM87.2547 103.831L89.7625 100.411H105.655L108.16 103.831H87.2547Z" fill="white"/>
</g>
<defs>
<linearGradient id="paint0_linear_766_1086" x1="97.5665" y1="4.53516" x2="97.5665" y2="142.248" gradientUnits="userSpaceOnUse">
<stop stop-color="#F5B26B"/>
<stop offset="0.336538" stop-color="#F2A34F"/>
<stop offset="1" stop-color="#EC8619"/>
</linearGradient>
<clipPath id="clip0_766_1086">
<rect width="92.748" height="93.555" fill="white" transform="translate(50.8184 26.2402)"/>
</clipPath>
</defs>
</svg>
