<svg width="184" height="156" viewBox="0 0 184 156" fill="none" xmlns="http://www.w3.org/2000/svg">
<path d="M37.0087 12.5523C40.1764 6.81446 46.2125 3.25195 52.7667 3.25195H116.34C122.646 3.25195 128.492 6.55181 131.75 11.9505L162.38 62.6976C165.833 68.418 165.833 75.5802 162.38 81.3005L131.75 132.048C128.492 137.446 122.646 140.746 116.34 140.746H52.7667C46.2125 140.746 40.1764 137.184 37.0087 131.446L8.99233 80.6987C6.00306 75.2841 6.00306 68.714 8.99233 63.2994L37.0087 12.5523Z" fill="url(#paint0_linear_766_1097)"/>
<g clip-path="url(#clip0_766_1097)">
<path d="M101.82 51.3501C106.116 51.3501 110.211 52.1986 113.98 53.6946C108.73 39.8753 95.3776 30.0527 79.7265 30.0527C59.49 30.0527 43.084 46.4691 43.084 66.7191C43.084 75.706 46.3204 83.9346 51.6839 90.3103L47.3955 107.698L68.5138 101.63C70.3828 102.231 72.3209 102.676 74.3069 102.973C70.7563 97.6923 68.6794 91.3402 68.6794 84.511C68.6794 66.2262 83.5461 51.3501 101.82 51.3501Z" fill="white"/>
<path d="M130.597 85.1596C130.597 69.9725 118.293 57.6602 103.116 57.6602C87.9373 57.6602 75.6328 69.9725 75.6328 85.1596C75.6328 100.347 87.9372 112.659 103.116 112.659C106.049 112.659 108.874 112.195 111.525 111.343L127.364 115.894L124.148 102.854C128.171 98.0722 130.597 91.9002 130.597 85.1596Z" fill="white"/>
</g>
<defs>
<linearGradient id="paint0_linear_766_1097" x1="86.0919" y1="3.25195" x2="86.0919" y2="140.746" gradientUnits="userSpaceOnUse">
<stop stop-color="#E294D5"/>
<stop offset="1" stop-color="#B86BC5"/>
</linearGradient>
<clipPath id="clip0_766_1097">
<rect width="87.5122" height="87.5675" fill="white" transform="translate(43.084 29.1895)"/>
</clipPath>
</defs>
</svg>
